<svg xmlns="http://www.w3.org/2000/svg" version="1.1" width="512" height="512"><rect id="backgroundrect" width="100%" height="100%" x="0" y="0" fill="none" stroke="none"/>
<title/>




<g class="currentLayer" style=""><title>Layer 1</title><g id="icomoon-ignore">
</g><path d="M0 0h64v512h-64v-512z" id="svg_1" class="selected" fill="#484848" fill-opacity="1"/><path d="M416 321.501c41.312 0 77.285-9.992 96-24.75v-256c-18.715 14.759-54.688 24.751-96 24.751s-77.285-9.992-96-24.751v256c18.715 14.758 54.688 24.75 96 24.75z" id="svg_2" class="" fill="#41e841" fill-opacity="1"/><path d="M304 16.264c-23.453-9.97-57.76-16.264-96-16.264-48.198 0-90.167 9.992-112 24.751v256c21.833-14.759 63.802-24.751 112-24.751 38.24 0 72.547 6.294 96 16.264v-256z" id="svg_3" class="" stroke="#e9e98a" stroke-opacity="1" fill="#eb1a1a" fill-opacity="1"/></g></svg>